<svg viewBox="0 0 340 100"  xmlns="http://www.w3.org/2000/svg">
 <style type="text/css">.st0{fill:#099CEC;}
	.st1{fill:#066DA5;}
	.st2{fill:#089CEC;}
	.st3{fill:#FFFFFF;}
	.st4{fill:#056BA2;}
	.st5{opacity:0.6;fill:#101E26;enable-background:new    ;}
	.st6{opacity:0.1;fill:#101E26;enable-background:new    ;}</style>

 <title>full_horizontal</title>
 <desc>Created with Sketch.</desc>
 <g>
  <title>background</title>
  <rect fill="none" id="canvas_background" height="102" width="342" y="-1" x="-1"/>
 </g>
 <g>
  <title>Layer 1</title>
  <polygon points="58.62161469459534,32 69.6216299533844,32 69.6216299533844,42 58.62161469459534,42 " class="st0" id="Rectangle"/>
  <polygon points="71.6216299533844,32 82.6216299533844,32 82.6216299533844,42 71.6216299533844,42 " class="st0" id="Rectangle_1_"/>
  <polygon points="84.6216299533844,32 95.6216299533844,32 95.6216299533844,42 84.6216299533844,42 " class="st0" id="Rectangle_2_"/>
  <polygon points="97.6216299533844,32 108.6216299533844,32 108.6216299533844,42 97.6216299533844,42 " class="st0" id="Rectangle_3_"/>
  <polygon points="110.6216299533844,32 121.6216299533844,32 121.6216299533844,42 110.6216299533844,42 " class="st0" id="Rectangle_4_"/>
  <polygon points="71.6216299533844,20 82.6216299533844,20 82.6216299533844,30 71.6216299533844,30 " class="st0" id="Rectangle_5_"/>
  <polygon points="84.6216299533844,20 95.6216299533844,20 95.6216299533844,30 84.6216299533844,30 " class="st0" id="Rectangle_6_"/>
  <polygon points="97.6216299533844,20 108.6216299533844,20 108.6216299533844,30 97.6216299533844,30 " class="st0" id="Rectangle_7_"/>
  <polygon points="97.6216299533844,8 108.6216299533844,8 108.6216299533844,18 97.6216299533844,18 " class="st0" id="Rectangle_8_"/>
  <path d="m296.221621,53.4c-0.4,-0.4 -0.9,-0.7 -1.5,-0.9c-0.6,-0.2 -1.3,-0.4 -2,-0.5c-0.7,-0.1 -1.4,-0.1 -2,-0.1c-1.4,0 -2.8,0.2 -4,0.7c-1.3,0.5 -2.4,1.1 -3.5,2l0,-0.4c0,-0.6 -0.2,-1.1 -0.7,-1.6c-0.4,-0.4 -1,-0.7 -1.6,-0.7c-0.6,0 -1.2,0.2 -1.6,0.7c-0.4,0.4 -0.7,1 -0.7,1.6l0,19.6c0,0.6 0.2,1.1 0.7,1.6c0.4,0.4 1,0.7 1.6,0.7c0.6,0 1.1,-0.2 1.6,-0.7c0.4,-0.4 0.7,-1 0.7,-1.6l0,-9.8c0,-1 0.2,-2 0.6,-2.9c0.4,-0.9 0.9,-1.7 1.6,-2.4c0.7,-0.7 1.5,-1.2 2.4,-1.6c0.9,-0.4 1.9,-0.6 2.9,-0.6c1.1,0 2,0.2 2.9,0.5c0.4,0.2 0.7,0.2 0.9,0.2c0.3,0 0.6,-0.1 0.9,-0.2c0.3,-0.1 0.5,-0.3 0.7,-0.5c0.2,-0.2 0.4,-0.4 0.5,-0.7c0.1,-0.3 0.2,-0.6 0.2,-0.9c0,-0.6 -0.2,-1.1 -0.6,-1.5zm-38.8,8.3c0.2,-0.8 0.6,-1.5 1.1,-2.2c0.5,-0.7 1,-1.2 1.7,-1.7c0.6,-0.5 1.4,-0.8 2.1,-1.1c0.8,-0.3 1.6,-0.4 2.4,-0.4c0.8,0 1.6,0.1 2.4,0.4c0.8,0.3 1.5,0.6 2.1,1.1c0.6,0.5 1.2,1 1.7,1.7c0.5,0.7 0.8,1.4 1.1,2.2l-14.6,0zm15.8,-6.2c-2.4,-2.3 -5.2,-3.5 -8.5,-3.5c-3.3,0 -6.2,1.2 -8.5,3.5c-2.3,2.3 -3.5,5.2 -3.5,8.5s1.2,6.2 3.5,8.5c2.3,2.3 5.2,3.5 8.5,3.5c3,0 5.6,-1 7.9,-2.9c0.4,-0.4 0.6,-1 0.6,-1.6c0,-0.6 -0.2,-1.2 -0.6,-1.6c-0.4,-0.4 -1,-0.6 -1.6,-0.6c-0.6,0 -1.1,0.2 -1.5,0.6c-0.7,0.6 -1.4,1 -2.2,1.3c-0.8,0.3 -1.7,0.4 -2.6,0.4c-0.8,0 -1.6,-0.1 -2.4,-0.4c-0.8,-0.3 -1.5,-0.6 -2.1,-1.1c-0.6,-0.5 -1.2,-1 -1.7,-1.7c-0.5,-0.7 -0.8,-1.4 -1.1,-2.2l17,0c0.6,0 1.2,-0.2 1.6,-0.6c0.4,-0.4 0.7,-1 0.7,-1.6c0,-1.7 -0.3,-3.2 -0.9,-4.6c-0.6,-1.5 -1.5,-2.8 -2.6,-3.9zm-22.6,-1.3c0,-0.3 -0.1,-0.6 -0.2,-0.9c-0.1,-0.3 -0.3,-0.5 -0.5,-0.7c-0.2,-0.2 -0.4,-0.4 -0.7,-0.5c-0.3,-0.1 -0.6,-0.2 -0.9,-0.2c-0.4,0 -0.8,0.1 -1.2,0.3l-12.8,8.4l0,-16.7c0,-0.6 -0.2,-1.2 -0.7,-1.6c-0.4,-0.4 -1,-0.7 -1.6,-0.7c-0.6,0 -1.2,0.2 -1.6,0.7c-0.4,0.4 -0.7,1 -0.7,1.6l0,29.9c0,0.6 0.2,1.1 0.7,1.6c0.4,0.4 1,0.7 1.6,0.7c0.6,0 1.1,-0.2 1.6,-0.7c0.4,-0.4 0.7,-1 0.7,-1.6l0,-7.8l2.6,-1.7l9.9,11.2c0.4,0.4 0.9,0.6 1.5,0.6c0.3,0 0.6,-0.1 0.9,-0.2c0.3,-0.1 0.5,-0.3 0.7,-0.5c0.2,-0.2 0.4,-0.4 0.5,-0.7c0.1,-0.3 0.2,-0.6 0.2,-0.9c0,-0.6 -0.2,-1.1 -0.6,-1.6l-9.2,-10.4l9,-5.8c0.5,-0.4 0.8,-1 0.8,-1.8zm-36.9,4.4c0.7,-0.7 1.5,-1.2 2.4,-1.6c0.9,-0.4 1.9,-0.6 2.9,-0.6c0.9,0 1.8,0.2 2.6,0.5c0.8,0.3 1.6,0.8 2.3,1.4c0.4,0.3 0.9,0.5 1.5,0.5c0.6,0 1.2,-0.2 1.6,-0.6c0.4,-0.4 0.6,-1 0.6,-1.6c0,-0.7 -0.3,-1.2 -0.8,-1.7c-2.2,-1.9 -4.8,-2.9 -7.8,-2.9c-3.3,0 -6.2,1.2 -8.5,3.5c-2.3,2.3 -3.5,5.2 -3.5,8.5s1.2,6.2 3.5,8.5c2.3,2.3 5.2,3.5 8.5,3.5c3,0 5.6,-1 7.8,-2.9c0.5,-0.5 0.7,-1 0.7,-1.7c0,-0.6 -0.2,-1.2 -0.6,-1.6c-0.4,-0.4 -1,-0.6 -1.6,-0.6c-0.5,0 -1,0.2 -1.4,0.5c-0.7,0.6 -1.5,1.1 -2.3,1.4c-0.8,0.3 -1.7,0.5 -2.6,0.5c-1,0 -2,-0.2 -2.9,-0.6c-0.9,-0.4 -1.7,-0.9 -2.4,-1.6c-0.7,-0.7 -1.2,-1.5 -1.6,-2.4c-0.4,-0.9 -0.6,-1.9 -0.6,-2.9c0,-1 0.2,-2 0.6,-2.9c0.4,-1.1 0.9,-1.9 1.6,-2.6zm-13.9,8.3c-0.4,0.9 -0.9,1.7 -1.6,2.4c-0.7,0.7 -1.5,1.2 -2.4,1.6c-0.9,0.4 -1.9,0.6 -2.9,0.6c-1.1,0 -2,-0.2 -3,-0.6c-0.9,-0.4 -1.7,-0.9 -2.4,-1.6c-0.7,-0.7 -1.2,-1.5 -1.6,-2.4c-0.4,-0.9 -0.6,-1.9 -0.6,-2.9s0.2,-2 0.6,-2.9c0.4,-0.9 0.9,-1.7 1.6,-2.4c0.7,-0.7 1.5,-1.2 2.4,-1.6c0.9,-0.4 1.9,-0.6 3,-0.6c1,0 2,0.2 2.9,0.6c0.9,0.4 1.7,0.9 2.4,1.6c0.7,0.7 1.2,1.5 1.6,2.4c0.4,0.9 0.6,1.9 0.6,2.9s-0.2,2 -0.6,2.9zm1.6,-11.4c-2.4,-2.3 -5.2,-3.5 -8.5,-3.5c-3.3,0 -6.2,1.2 -8.5,3.5c-2.4,2.3 -3.5,5.2 -3.5,8.5s1.2,6.2 3.5,8.5c2.3,2.3 5.2,3.5 8.5,3.5c3.3,0 6.1,-1.2 8.5,-3.5c2.3,-2.3 3.5,-5.2 3.5,-8.5c0,-1.7 -0.3,-3.2 -0.9,-4.6s-1.5,-2.8 -2.6,-3.9zm-27.8,11.4c-0.4,0.9 -0.9,1.7 -1.6,2.4c-0.7,0.7 -1.5,1.2 -2.4,1.6c-0.9,0.4 -1.9,0.6 -2.9,0.6c-1.1,0 -2,-0.2 -3,-0.6c-0.9,-0.4 -1.7,-0.9 -2.4,-1.6c-0.7,-0.7 -1.2,-1.5 -1.6,-2.4c-0.4,-0.9 -0.6,-1.9 -0.6,-2.9s0.2,-2 0.6,-2.9c0.4,-0.9 0.9,-1.7 1.6,-2.4c0.7,-0.7 1.5,-1.2 2.4,-1.6c0.9,-0.4 1.9,-0.6 3,-0.6c1,0 2,0.2 2.9,0.6c0.9,0.4 1.7,0.9 2.4,1.6c0.7,0.7 1.2,1.5 1.6,2.4c0.4,0.9 0.6,1.9 0.6,2.9s-0.2,2 -0.6,2.9zm2.8,-25.3c-0.6,0 -1.2,0.2 -1.6,0.6c-0.4,0.4 -0.6,1 -0.6,1.6l0,10.7c-2.2,-1.8 -4.7,-2.6 -7.5,-2.6c-3.3,0 -6.2,1.2 -8.5,3.5c-2.3,2.3 -3.5,5.2 -3.5,8.5s1.2,6.2 3.5,8.5s5.2,3.5 8.5,3.5c3.3,0 6.1,-1.2 8.5,-3.5c2.3,-2.3 3.5,-5.2 3.5,-8.5l0,-20c0,-0.6 -0.2,-1.2 -0.7,-1.6c-0.4,-0.5 -1,-0.7 -1.6,-0.7z" class="st1" id="Fill-1"/>
  <path d="m141.521621,34c-0.2,-4.3 -2.4,-7.9 -6.5,-11.1l-1.5,-1l-1,1.5c-2,3 -2.8,7 -2.5,10.6c0.2,2.2 1,4.7 2.5,6.5c-1.1,0.9 -4.7,2.6 -9.5,2.5l-71.5,0c-1.3,7.6 0.9,36.2 34,36.2c24.6,0 44.8,-11 54,-34.2c3,0 11.1,0.5 15,-7c0.1,-0.1 1,-2 1,-2l-1.5,-1c-2.2,-1.5 -8.2,-2.1 -12.5,-1z" class="st2" id="Shape"/>
  <path d="m58.621621,32l0,10l11,0l0,-10l-11,0zm-2,-2l15,0l0,14l-15,0l0,-14z" class="st1" id="Rectangle-38-Copy"/>
  <path d="m78.321621,65.8c-8.2,2.8 -16.9,3.2 -18.8,3.2c6.1,5.1 17,14.7 35,9.2c-3.3,-0.9 -11,-3.9 -16.2,-12.4z" class="st3" id="Fill-21"/>
  <path d="m77.421621,64c-3.9,2.2 -8.5,3.5 -13.3,3.5c-2.4,0 -4.8,-0.3 -7.1,-0.9c1.4,2.4 1.4,2.4 1.4,2.4c1.8,0.4 3.7,0.5 5.6,0.5c5.2,0 10,-1.4 14.3,-3.8c-0.3,-0.5 -0.6,-1.1 -0.9,-1.7z" class="st4" id="Shape_1_"/>
  <ellipse ry="3.5" rx="3.5" cy="59.2" cx="85.021621" class="st3" id="Oval"/>
  <path id="svg_1" d="m87.021621,59.1c-0.1,0.1 -0.3,0.1 -0.5,0.1c-0.6,0 -1,-0.5 -1,-1c0,-0.3 0.2,-0.6 0.4,-0.8c-0.3,-0.1 -0.6,-0.2 -0.9,-0.2c-1.1,0 -2,0.9 -2,2s0.9,2 2,2c1.1,0 2,-0.9 2,-2c0,0 0,-0.1 0,-0.1z" class="st5"/>
  <path d="m154.121621,34.9c-2.2,-1.5 -8.4,-2.2 -12.5,-1l-0.9,1.3c-13.4,27.7 -30.2,39.5 -53.1,40c-25,-0.1 -31.2,-13.2 -33,-31.2l-4,0c-0.5,7.6 1.4,35.3 34.8,35.3c24.6,0 44.8,-11 54.2,-34.2c3.1,0.1 11.6,0.1 15.3,-7.6l0.8,-1.6l-1.6,-1z" class="st6" id="Shape_2_"/>
  <path d="m154.621621,34.1l2.2,1.5l-0.4,0.8c-0.1,0.2 -0.1,0.2 -0.2,0.3c-0.1,0.2 -0.2,0.5 -0.3,0.7c-0.3,0.6 -0.4,0.9 -0.5,1.1c-1.7,3.3 -4.3,5.4 -7.5,6.6c-2.4,0.9 -4.6,1.1 -7.7,1c-9.2,22.3 -28.9,34.2 -54.7,34.2c-15.1,0 -25.2,-5.8 -30.8,-15.8c-2.1,-3.8 -3.5,-8.1 -4.1,-12.5c-0.5,-3.5 -0.5,-6.8 -0.1,-9.2l0.1,-0.8l0.8,0l71.5,0c3.2,0.1 6.2,-0.8 8,-1.8c-1.1,-1.7 -1.8,-3.9 -2.1,-6.2c-0.3,-4 0.6,-8.1 2.7,-11.2l1.6,-2.3l2.5,1.5c4,3.1 6.2,6.6 6.8,10.7c4.3,-0.8 9.8,-0.2 12.2,1.4zm-1.1,1.7c-2.1,-1.4 -7.8,-1.9 -11.7,-0.9l-1.2,0.3l-0.1,-1.2c-0.2,-3.9 -2.2,-7.3 -6.1,-10.3l-0.6,-0.4l-0.4,0.7c-1.8,2.7 -2.6,6.4 -2.3,9.9c0.2,2.3 1,4.5 2.3,6l0.7,0.8l-0.8,0.6c-2,1.5 -5.9,2.8 -10.1,2.7l-70.8,0c-0.2,2.1 -0.2,4.8 0.2,7.7c0.6,4.1 1.9,8.2 3.9,11.8c5.2,9.3 14.6,14.8 29,14.8c25.2,0 44.3,-11.7 53.1,-33.6l0.3,-0.6l0.7,0c0.3,0 0.5,0 0.5,0c3,0.1 5,-0.1 7.1,-0.9c2.8,-1 4.9,-2.8 6.4,-5.6c0.1,-0.2 0.1,-0.2 0.2,-0.3c0.1,-0.2 0.2,-0.4 0.3,-0.6c0,-0.1 0.1,-0.2 0.1,-0.2l-0.7,-0.7z" class="st4" id="Shape_3_"/>
  <rect height="6" width="1" class="st1" y="34" x="60.621621" id="Rectangle-5"/>
  <rect height="6" width="1" class="st1" y="34" x="63.621621" id="Rectangle-5_1_"/>
  <rect height="6" width="1" class="st1" y="34" x="66.621621" id="Rectangle-5_2_"/>
  <path d="m71.621621,32l0,10l11,0l0,-10l-11,0zm-2,-2l15,0l0,14l-15,0l0,-14z" class="st1" id="Rectangle-38-Copy_1_"/>
  <rect height="6" width="1" class="st1" y="34" x="73.621621" id="Rectangle-5_3_"/>
  <rect height="6" width="1" class="st1" y="34" x="76.621621" id="Rectangle-5_4_"/>
  <rect height="6" width="1" class="st1" y="34" x="79.621621" id="Rectangle-5_5_"/>
  <path d="m84.621621,32l0,10l11,0l0,-10l-11,0zm-2,-2l15,0l0,14l-15,0l0,-14z" class="st1" id="Rectangle-38-Copy_2_"/>
  <rect height="6" width="1" class="st1" y="34" x="86.621621" id="Rectangle-5_6_"/>
  <rect height="6" width="1" class="st1" y="34" x="89.621621" id="Rectangle-5_7_"/>
  <rect height="6" width="1" class="st1" y="34" x="92.621621" id="Rectangle-5_8_"/>
  <path d="m97.621621,32l0,10l11,0l0,-10l-11,0zm-2,-2l15,0l0,14l-15,0l0,-14z" class="st1" id="Rectangle-38-Copy_3_"/>
  <rect height="6" width="1" class="st1" y="34" x="99.621621" id="Rectangle-5_9_"/>
  <rect height="6" width="1" class="st1" y="34" x="102.621621" id="Rectangle-5_10_"/>
  <rect height="6" width="1" class="st1" y="34" x="105.621621" id="Rectangle-5_11_"/>
  <path d="m110.621621,32l0,10l11,0l0,-10l-11,0zm-2,-2l15,0l0,14l-15,0l0,-14z" class="st1" id="Rectangle-38-Copy_4_"/>
  <rect height="6" width="1" class="st1" y="34" x="112.621621" id="Rectangle-5_12_"/>
  <rect height="6" width="1" class="st1" y="34" x="115.621621" id="Rectangle-5_13_"/>
  <rect height="6" width="1" class="st1" y="34" x="118.621621" id="Rectangle-5_14_"/>
  <path d="m71.621621,20l0,10l11,0l0,-10l-11,0zm-2,-2l15,0l0,14l-15,0l0,-14z" class="st1" id="Rectangle-38-Copy_5_"/>
  <rect height="6" width="1" class="st1" y="22" x="76.621621" id="Rectangle-5_15_"/>
  <rect height="6" width="1" class="st1" y="22" x="79.621621" id="Rectangle-5_16_"/>
  <path d="m84.621621,20l0,10l11,0l0,-10l-11,0zm-2,-2l15,0l0,14l-15,0l0,-14z" class="st1" id="Rectangle-38-Copy_6_"/>
  <rect height="6" width="1" class="st1" y="22" x="86.621621" id="Rectangle-5_17_"/>
  <rect height="6" width="1" class="st1" y="22" x="89.621621" id="Rectangle-5_18_"/>
  <rect height="6" width="1" class="st1" y="22" x="92.621621" id="Rectangle-5_19_"/>
  <path d="m97.621621,20l0,10l11,0l0,-10l-11,0zm-2,-2l15,0l0,14l-15,0l0,-14z" class="st1" id="Rectangle-38-Copy_7_"/>
  <rect height="6" width="1" class="st1" y="22" x="99.621621" id="Rectangle-5_20_"/>
  <rect height="6" width="1" class="st1" y="22" x="102.621621" id="Rectangle-5_21_"/>
  <rect height="6" width="1" class="st1" y="22" x="105.621621" id="Rectangle-5_22_"/>
  <path d="m97.621621,8l0,10l11,0l0,-10l-11,0zm-2,-2l15,0l0,14l-15,0l0,-14z" class="st1" id="Rectangle-38-Copy_8_"/>
  <rect height="6" width="1" class="st1" y="10" x="102.621621" id="Rectangle-5_23_"/>
  <rect height="6" width="1" class="st1" y="10" x="99.621621" id="Rectangle-5_24_"/>
  <rect height="6" width="1" class="st1" y="10" x="105.621621" id="Rectangle-5_25_"/>
  <rect height="6" width="1" class="st1" y="22" x="73.621621" id="Rectangle-5_26_"/>
 </g>
</svg>