<?xml version="1.0" encoding="utf-8"?>
<!-- Generator: Adobe Illustrator 21.0.2, SVG Export Plug-In . SVG Version: 6.00 Build 0)  -->
<svg version="1.1" id="Capa_1" xmlns="http://www.w3.org/2000/svg" xmlns:xlink="http://www.w3.org/1999/xlink" x="0px" y="0px"
	 viewBox="0 0 340 184" style="enable-background:new 0 0 340 184;" xml:space="preserve">
<style type="text/css">
	.st0{fill:#099CEC;}
	.st1{fill:#066DA5;}
	.st2{fill:#089CEC;}
	.st3{fill:#FFFFFF;}
	.st4{fill:#056BA2;}
	.st5{opacity:0.6;fill:#101E26;enable-background:new    ;}
	.st6{opacity:0.1;fill:#101E26;enable-background:new    ;}
</style>
<title>full_horizontal</title>
<desc>Created with Sketch.</desc>
<polygon id="Rectangle" class="st0" points="55,77 66,77 66,87 55,87 "/>
<polygon id="Rectangle_1_" class="st0" points="68,77 79,77 79,87 68,87 "/>
<polygon id="Rectangle_2_" class="st0" points="81,77 92,77 92,87 81,87 "/>
<polygon id="Rectangle_3_" class="st0" points="94,77 105,77 105,87 94,87 "/>
<polygon id="Rectangle_4_" class="st0" points="107,77 118,77 118,87 107,87 "/>
<polygon id="Rectangle_5_" class="st0" points="68,65 79,65 79,75 68,75 "/>
<polygon id="Rectangle_6_" class="st0" points="81,65 92,65 92,75 81,75 "/>
<polygon id="Rectangle_7_" class="st0" points="94,65 105,65 105,75 94,75 "/>
<polygon id="Rectangle_8_" class="st0" points="94,53 105,53 105,63 94,63 "/>
<path id="Fill-1" class="st1" d="M292.6,98.4c-0.4-0.4-0.9-0.7-1.5-0.9c-0.6-0.2-1.3-0.4-2-0.5c-0.7-0.1-1.4-0.1-2-0.1
	c-1.4,0-2.8,0.2-4,0.7c-1.3,0.5-2.4,1.1-3.5,2v-0.4c0-0.6-0.2-1.1-0.7-1.6c-0.4-0.4-1-0.7-1.6-0.7c-0.6,0-1.2,0.2-1.6,0.7
	c-0.4,0.4-0.7,1-0.7,1.6v19.6c0,0.6,0.2,1.1,0.7,1.6c0.4,0.4,1,0.7,1.6,0.7c0.6,0,1.1-0.2,1.6-0.7c0.4-0.4,0.7-1,0.7-1.6V109
	c0-1,0.2-2,0.6-2.9c0.4-0.9,0.9-1.7,1.6-2.4c0.7-0.7,1.5-1.2,2.4-1.6c0.9-0.4,1.9-0.6,2.9-0.6c1.1,0,2,0.2,2.9,0.5
	c0.4,0.2,0.7,0.2,0.9,0.2c0.3,0,0.6-0.1,0.9-0.2c0.3-0.1,0.5-0.3,0.7-0.5c0.2-0.2,0.4-0.4,0.5-0.7c0.1-0.3,0.2-0.6,0.2-0.9
	C293.2,99.3,293,98.8,292.6,98.4z M253.8,106.7c0.2-0.8,0.6-1.5,1.1-2.2c0.5-0.7,1-1.2,1.7-1.7c0.6-0.5,1.4-0.8,2.1-1.1
	c0.8-0.3,1.6-0.4,2.4-0.4c0.8,0,1.6,0.1,2.4,0.4c0.8,0.3,1.5,0.6,2.1,1.1c0.6,0.5,1.2,1,1.7,1.7c0.5,0.7,0.8,1.4,1.1,2.2H253.8z
	 M269.6,100.5c-2.4-2.3-5.2-3.5-8.5-3.5c-3.3,0-6.2,1.2-8.5,3.5c-2.3,2.3-3.5,5.2-3.5,8.5s1.2,6.2,3.5,8.5c2.3,2.3,5.2,3.5,8.5,3.5
	c3,0,5.6-1,7.9-2.9c0.4-0.4,0.6-1,0.6-1.6c0-0.6-0.2-1.2-0.6-1.6c-0.4-0.4-1-0.6-1.6-0.6c-0.6,0-1.1,0.2-1.5,0.6
	c-0.7,0.6-1.4,1-2.2,1.3c-0.8,0.3-1.7,0.4-2.6,0.4c-0.8,0-1.6-0.1-2.4-0.4c-0.8-0.3-1.5-0.6-2.1-1.1c-0.6-0.5-1.2-1-1.7-1.7
	c-0.5-0.7-0.8-1.4-1.1-2.2h17c0.6,0,1.2-0.2,1.6-0.6c0.4-0.4,0.7-1,0.7-1.6c0-1.7-0.3-3.2-0.9-4.6
	C271.6,102.9,270.7,101.6,269.6,100.5z M247,99.2c0-0.3-0.1-0.6-0.2-0.9c-0.1-0.3-0.3-0.5-0.5-0.7c-0.2-0.2-0.4-0.4-0.7-0.5
	c-0.3-0.1-0.6-0.2-0.9-0.2c-0.4,0-0.8,0.1-1.2,0.3l-12.8,8.4V88.9c0-0.6-0.2-1.2-0.7-1.6c-0.4-0.4-1-0.7-1.6-0.7
	c-0.6,0-1.2,0.2-1.6,0.7c-0.4,0.4-0.7,1-0.7,1.6v29.9c0,0.6,0.2,1.1,0.7,1.6c0.4,0.4,1,0.7,1.6,0.7c0.6,0,1.1-0.2,1.6-0.7
	c0.4-0.4,0.7-1,0.7-1.6V111l2.6-1.7l9.9,11.2c0.4,0.4,0.9,0.6,1.5,0.6c0.3,0,0.6-0.1,0.9-0.2c0.3-0.1,0.5-0.3,0.7-0.5
	c0.2-0.2,0.4-0.4,0.5-0.7c0.1-0.3,0.2-0.6,0.2-0.9c0-0.6-0.2-1.1-0.6-1.6l-9.2-10.4l9-5.8C246.7,100.6,247,100,247,99.2z
	 M210.1,103.6c0.7-0.7,1.5-1.2,2.4-1.6c0.9-0.4,1.9-0.6,2.9-0.6c0.9,0,1.8,0.2,2.6,0.5c0.8,0.3,1.6,0.8,2.3,1.4
	c0.4,0.3,0.9,0.5,1.5,0.5c0.6,0,1.2-0.2,1.6-0.6c0.4-0.4,0.6-1,0.6-1.6c0-0.7-0.3-1.2-0.8-1.7c-2.2-1.9-4.8-2.9-7.8-2.9
	c-3.3,0-6.2,1.2-8.5,3.5c-2.3,2.3-3.5,5.2-3.5,8.5s1.2,6.2,3.5,8.5c2.3,2.3,5.2,3.5,8.5,3.5c3,0,5.6-1,7.8-2.9
	c0.5-0.5,0.7-1,0.7-1.7c0-0.6-0.2-1.2-0.6-1.6c-0.4-0.4-1-0.6-1.6-0.6c-0.5,0-1,0.2-1.4,0.5c-0.7,0.6-1.5,1.1-2.3,1.4
	c-0.8,0.3-1.7,0.5-2.6,0.5c-1,0-2-0.2-2.9-0.6c-0.9-0.4-1.7-0.9-2.4-1.6c-0.7-0.7-1.2-1.5-1.6-2.4c-0.4-0.9-0.6-1.9-0.6-2.9
	c0-1,0.2-2,0.6-2.9C208.9,105.1,209.4,104.3,210.1,103.6z M196.2,111.9c-0.4,0.9-0.9,1.7-1.6,2.4c-0.7,0.7-1.5,1.2-2.4,1.6
	c-0.9,0.4-1.9,0.6-2.9,0.6c-1.1,0-2-0.2-3-0.6c-0.9-0.4-1.7-0.9-2.4-1.6c-0.7-0.7-1.2-1.5-1.6-2.4c-0.4-0.9-0.6-1.9-0.6-2.9
	s0.2-2,0.6-2.9c0.4-0.9,0.9-1.7,1.6-2.4c0.7-0.7,1.5-1.2,2.4-1.6c0.9-0.4,1.9-0.6,3-0.6c1,0,2,0.2,2.9,0.6c0.9,0.4,1.7,0.9,2.4,1.6
	c0.7,0.7,1.2,1.5,1.6,2.4c0.4,0.9,0.6,1.9,0.6,2.9S196.6,111,196.2,111.9z M197.8,100.5c-2.4-2.3-5.2-3.5-8.5-3.5
	c-3.3,0-6.2,1.2-8.5,3.5c-2.4,2.3-3.5,5.2-3.5,8.5s1.2,6.2,3.5,8.5c2.3,2.3,5.2,3.5,8.5,3.5c3.3,0,6.1-1.2,8.5-3.5
	c2.3-2.3,3.5-5.2,3.5-8.5c0-1.7-0.3-3.2-0.9-4.6S198.9,101.6,197.8,100.5z M170,111.9c-0.4,0.9-0.9,1.7-1.6,2.4
	c-0.7,0.7-1.5,1.2-2.4,1.6c-0.9,0.4-1.9,0.6-2.9,0.6c-1.1,0-2-0.2-3-0.6c-0.9-0.4-1.7-0.9-2.4-1.6c-0.7-0.7-1.2-1.5-1.6-2.4
	c-0.4-0.9-0.6-1.9-0.6-2.9s0.2-2,0.6-2.9c0.4-0.9,0.9-1.7,1.6-2.4c0.7-0.7,1.5-1.2,2.4-1.6c0.9-0.4,1.9-0.6,3-0.6c1,0,2,0.2,2.9,0.6
	c0.9,0.4,1.7,0.9,2.4,1.6c0.7,0.7,1.2,1.5,1.6,2.4c0.4,0.9,0.6,1.9,0.6,2.9S170.4,111,170,111.9z M172.8,86.6
	c-0.6,0-1.2,0.2-1.6,0.6c-0.4,0.4-0.6,1-0.6,1.6v10.7c-2.2-1.8-4.7-2.6-7.5-2.6c-3.3,0-6.2,1.2-8.5,3.5c-2.3,2.3-3.5,5.2-3.5,8.5
	s1.2,6.2,3.5,8.5s5.2,3.5,8.5,3.5c3.3,0,6.1-1.2,8.5-3.5c2.3-2.3,3.5-5.2,3.5-8.5V88.9c0-0.6-0.2-1.2-0.7-1.6
	C174,86.8,173.4,86.6,172.8,86.6z"/>
<path id="Shape" class="st2" d="M137.9,79c-0.2-4.3-2.4-7.9-6.5-11.1l-1.5-1l-1,1.5c-2,3-2.8,7-2.5,10.6c0.2,2.2,1,4.7,2.5,6.5
	c-1.1,0.9-4.7,2.6-9.5,2.5H47.9c-1.3,7.6,0.9,36.2,34,36.2c24.6,0,44.8-11,54-34.2c3,0,11.1,0.5,15-7c0.1-0.1,1-2,1-2l-1.5-1
	C148.2,78.5,142.2,77.9,137.9,79z"/>
<path id="Rectangle-38-Copy" class="st1" d="M55,77v10h11V77H55z M53,75h15v14H53V75z"/>
<path id="Fill-21" class="st3" d="M74.7,110.8c-8.2,2.8-16.9,3.2-18.8,3.2c6.1,5.1,17,14.7,35,9.2C87.6,122.3,79.9,119.3,74.7,110.8
	z"/>
<path id="Shape_1_" class="st4" d="M73.8,109c-3.9,2.2-8.5,3.5-13.3,3.5c-2.4,0-4.8-0.3-7.1-0.9c1.4,2.4,1.4,2.4,1.4,2.4
	c1.8,0.4,3.7,0.5,5.6,0.5c5.2,0,10-1.4,14.3-3.8C74.4,110.2,74.1,109.6,73.8,109z"/>
<ellipse id="Oval" class="st3" cx="81.4" cy="104.2" rx="3.5" ry="3.5"/>
<path class="st5" d="M83.4,104.1c-0.1,0.1-0.3,0.1-0.5,0.1c-0.6,0-1-0.5-1-1c0-0.3,0.2-0.6,0.4-0.8c-0.3-0.1-0.6-0.2-0.9-0.2
	c-1.1,0-2,0.9-2,2s0.9,2,2,2c1.1,0,2-0.9,2-2C83.4,104.2,83.4,104.1,83.4,104.1z"/>
<path id="Shape_2_" class="st6" d="M150.5,79.9c-2.2-1.5-8.4-2.2-12.5-1l-0.9,1.3c-13.4,27.7-30.2,39.5-53.1,40
	c-25-0.1-31.2-13.2-33-31.2h-4c-0.5,7.6,1.4,35.3,34.8,35.3c24.6,0,44.8-11,54.2-34.2c3.1,0.1,11.6,0.1,15.3-7.6l0.8-1.6L150.5,79.9
	z"/>
<path id="Shape_3_" class="st4" d="M151,79.1l2.2,1.5l-0.4,0.8c-0.1,0.2-0.1,0.2-0.2,0.3c-0.1,0.2-0.2,0.5-0.3,0.7
	c-0.3,0.6-0.4,0.9-0.5,1.1c-1.7,3.3-4.3,5.4-7.5,6.6c-2.4,0.9-4.6,1.1-7.7,1c-9.2,22.3-28.9,34.2-54.7,34.2
	c-15.1,0-25.2-5.8-30.8-15.8c-2.1-3.8-3.5-8.1-4.1-12.5c-0.5-3.5-0.5-6.8-0.1-9.2l0.1-0.8h0.8l71.5,0c3.2,0.1,6.2-0.8,8-1.8
	c-1.1-1.7-1.8-3.9-2.1-6.2c-0.3-4,0.6-8.1,2.7-11.2l1.6-2.3L132,67c4,3.1,6.2,6.6,6.8,10.7C143.1,76.9,148.6,77.5,151,79.1z
	 M149.9,80.8c-2.1-1.4-7.8-1.9-11.7-0.9l-1.2,0.3l-0.1-1.2c-0.2-3.9-2.2-7.3-6.1-10.3l-0.6-0.4l-0.4,0.7c-1.8,2.7-2.6,6.4-2.3,9.9
	c0.2,2.3,1,4.5,2.3,6l0.7,0.8l-0.8,0.6c-2,1.5-5.9,2.8-10.1,2.7H48.8c-0.2,2.1-0.2,4.8,0.2,7.7c0.6,4.1,1.9,8.2,3.9,11.8
	c5.2,9.3,14.6,14.8,29,14.8c25.2,0,44.3-11.7,53.1-33.6l0.3-0.6l0.7,0c0.3,0,0.5,0,0.5,0c3,0.1,5-0.1,7.1-0.9c2.8-1,4.9-2.8,6.4-5.6
	c0.1-0.2,0.1-0.2,0.2-0.3c0.1-0.2,0.2-0.4,0.3-0.6c0-0.1,0.1-0.2,0.1-0.2L149.9,80.8z"/>
<rect id="Rectangle-5" x="57" y="79" class="st1" width="1" height="6"/>
<rect id="Rectangle-5_1_" x="60" y="79" class="st1" width="1" height="6"/>
<rect id="Rectangle-5_2_" x="63" y="79" class="st1" width="1" height="6"/>
<path id="Rectangle-38-Copy_1_" class="st1" d="M68,77v10h11V77H68z M66,75h15v14H66V75z"/>
<rect id="Rectangle-5_3_" x="70" y="79" class="st1" width="1" height="6"/>
<rect id="Rectangle-5_4_" x="73" y="79" class="st1" width="1" height="6"/>
<rect id="Rectangle-5_5_" x="76" y="79" class="st1" width="1" height="6"/>
<path id="Rectangle-38-Copy_2_" class="st1" d="M81,77v10h11V77H81z M79,75h15v14H79V75z"/>
<rect id="Rectangle-5_6_" x="83" y="79" class="st1" width="1" height="6"/>
<rect id="Rectangle-5_7_" x="86" y="79" class="st1" width="1" height="6"/>
<rect id="Rectangle-5_8_" x="89" y="79" class="st1" width="1" height="6"/>
<path id="Rectangle-38-Copy_3_" class="st1" d="M94,77v10h11V77H94z M92,75h15v14H92V75z"/>
<rect id="Rectangle-5_9_" x="96" y="79" class="st1" width="1" height="6"/>
<rect id="Rectangle-5_10_" x="99" y="79" class="st1" width="1" height="6"/>
<rect id="Rectangle-5_11_" x="102" y="79" class="st1" width="1" height="6"/>
<path id="Rectangle-38-Copy_4_" class="st1" d="M107,77v10h11V77H107z M105,75h15v14h-15V75z"/>
<rect id="Rectangle-5_12_" x="109" y="79" class="st1" width="1" height="6"/>
<rect id="Rectangle-5_13_" x="112" y="79" class="st1" width="1" height="6"/>
<rect id="Rectangle-5_14_" x="115" y="79" class="st1" width="1" height="6"/>
<path id="Rectangle-38-Copy_5_" class="st1" d="M68,65v10h11V65H68z M66,63h15v14H66V63z"/>
<rect id="Rectangle-5_15_" x="73" y="67" class="st1" width="1" height="6"/>
<rect id="Rectangle-5_16_" x="76" y="67" class="st1" width="1" height="6"/>
<path id="Rectangle-38-Copy_6_" class="st1" d="M81,65v10h11V65H81z M79,63h15v14H79V63z"/>
<rect id="Rectangle-5_17_" x="83" y="67" class="st1" width="1" height="6"/>
<rect id="Rectangle-5_18_" x="86" y="67" class="st1" width="1" height="6"/>
<rect id="Rectangle-5_19_" x="89" y="67" class="st1" width="1" height="6"/>
<path id="Rectangle-38-Copy_7_" class="st1" d="M94,65v10h11V65H94z M92,63h15v14H92V63z"/>
<rect id="Rectangle-5_20_" x="96" y="67" class="st1" width="1" height="6"/>
<rect id="Rectangle-5_21_" x="99" y="67" class="st1" width="1" height="6"/>
<rect id="Rectangle-5_22_" x="102" y="67" class="st1" width="1" height="6"/>
<path id="Rectangle-38-Copy_8_" class="st1" d="M94,53v10h11V53H94z M92,51h15v14H92V51z"/>
<rect id="Rectangle-5_23_" x="99" y="55" class="st1" width="1" height="6"/>
<rect id="Rectangle-5_24_" x="96" y="55" class="st1" width="1" height="6"/>
<rect id="Rectangle-5_25_" x="102" y="55" class="st1" width="1" height="6"/>
<rect id="Rectangle-5_26_" x="70" y="67" class="st1" width="1" height="6"/>
</svg>
